<?xml version="1.0" encoding="UTF-8" standalone="no"?>
<!-- Generator: Avocode 1.0.1 - http://avocode.com -->
<svg xmlns="http://www.w3.org/2000/svg" xmlns:xlink="http://www.w3.org/1999/xlink" width="1198" height="30" viewBox="0 0 1198 30">
    <desc>Created with Avocode</desc>
    <path d="M-1,0C-1,0,599,0,599,0C599,0,599,10.66,599,30C453.66,30,374.09,15.75,199.67,7.03C89.21,1.51,-1,0,-1,0C-1,0,-1,0,-1,0M1199,0C1199,0,599,0,599,0C599,0,599,10.66,599,30C744.34,30,823.91,15.75,998.33,7.03C1108.79,1.51,1199,0,1199,0C1199,0,1199,0,1199,0" fill="#e3e3e8" />
</svg>