<?xml version="1.0" encoding="UTF-8" standalone="no"?>
<!-- Generator: Avocode 1.0.1 - http://avocode.com -->
<svg xmlns="http://www.w3.org/2000/svg" xmlns:xlink="http://www.w3.org/1999/xlink" width="1198" height="30" viewBox="0 0 1198 30">
    <desc>Created with Avocode</desc>
    <path d="M-1,30C-1,30,599,30,599,30C599,30,599,19.33,599,0C453.66,0,374.09,14.24,199.67,22.96C89.21,28.49,-1,30,-1,30C-1,30,-1,30,-1,30M1199,30C1199,30,599,30,599,30C599,30,599,19.33,599,0C744.34,0,823.91,14.24,998.33,22.96C1108.79,28.49,1199,30,1199,30C1199,30,1199,30,1199,30" fill="#f1f2f4" />
</svg>